<?xml version="1.0" encoding="UTF-8" standalone="no"?>
<!DOCTYPE svg PUBLIC "-//W3C//DTD SVG 1.1//EN"
 "http://www.w3.org/Graphics/SVG/1.1/DTD/svg11.dtd">
<!-- Generated by graphviz version 2.40.1 (20161225.0304)
 -->
<!-- Title: G Pages: 1 -->
<svg width="3705pt" height="224pt"
 viewBox="0.00 0.00 3704.50 224.00" xmlns="http://www.w3.org/2000/svg" xmlns:xlink="http://www.w3.org/1999/xlink">
<g id="graph0" class="graph" transform="scale(1 1) rotate(0) translate(4 220)">
<title>G</title>
<polygon fill="#ffffff" stroke="transparent" points="-4,4 -4,-220 3700.5,-220 3700.5,4 -4,4"/>
<!-- A0 -->
<g id="node1" class="node">
<title>A0</title>
<polygon fill="none" stroke="#000000" points="0,-184 0,-216 370,-216 370,-184 0,-184"/>
<text text-anchor="start" x="159.72" y="-197" font-family="Helvetica,sans-Serif" font-size="10.00" fill="#000000">Consultorio</text>
<polygon fill="none" stroke="#000000" points="0,-116 0,-184 370,-184 370,-116 0,-116"/>
<text text-anchor="start" x="148.6015" y="-165" font-family="Helvetica,sans-Serif" font-size="10.00" fill="#000000">&#45;nombre:cadena</text>
<text text-anchor="start" x="145.547" y="-153" font-family="Helvetica,sans-Serif" font-size="10.00" fill="#000000">&#45;direccion:cadena</text>
<text text-anchor="start" x="120.8215" y="-141" font-family="Helvetica,sans-Serif" font-size="10.00" fill="#000000">&#45;fechaDeCreacion:LocalDate</text>
<text text-anchor="start" x="124.1615" y="-129" font-family="Helvetica,sans-Serif" font-size="10.00" fill="#000000">&#45;instanciaUnica:Consultorio</text>
<polygon fill="none" stroke="#000000" points="0,0 0,-116 370,-116 370,0 0,0"/>
<text text-anchor="start" x="9.6835" y="-97" font-family="Helvetica,sans-Serif" font-size="10.00" fill="#000000">+Consultorio(nombre:cadena,direccion:cadena)+obtenerInstancia():Consultorio</text>
<text text-anchor="start" x="125.125" y="-85" font-family="Helvetica,sans-Serif" font-size="10.00" fill="#000000">+buscarPersona():Persona</text>
<text text-anchor="start" x="125.9615" y="-73" font-family="Helvetica,sans-Serif" font-size="10.00" fill="#000000">+verificarPersona:Optional</text>
<text text-anchor="start" x="121.2415" y="-61" font-family="Helvetica,sans-Serif" font-size="10.00" fill="#000000">+validarPersonaExiste():void</text>
<text text-anchor="start" x="132.35" y="-49" font-family="Helvetica,sans-Serif" font-size="10.00" fill="#000000">+agregarPersona():void</text>
<text text-anchor="start" x="132.0805" y="-37" font-family="Helvetica,sans-Serif" font-size="10.00" fill="#000000">+eliminarPersona():void</text>
<text text-anchor="start" x="77.765" y="-25" font-family="Helvetica,sans-Serif" font-size="10.00" fill="#000000">crearIteradorDoctoresActivos():Iterador&lt;Doctor&gt;</text>
<text text-anchor="start" x="107.2255" y="-13" font-family="Helvetica,sans-Serif" font-size="10.00" fill="#000000">crearAdministrador():Administrador</text>
</g>
<!-- A1 -->
<g id="node2" class="node">
<title>A1</title>
<polygon fill="none" stroke="#000000" points="389,-148 389,-180 854,-180 854,-148 389,-148"/>
<text text-anchor="start" x="602.0485" y="-161" font-family="Helvetica,sans-Serif" font-size="10.00" fill="#000000">Paciente</text>
<polygon fill="none" stroke="#000000" points="389,-128 389,-148 854,-148 854,-128 389,-128"/>
<polygon fill="none" stroke="#000000" points="389,-36 389,-128 854,-128 854,-36 389,-36"/>
<text text-anchor="start" x="398.822" y="-109" font-family="Helvetica,sans-Serif" font-size="10.00" fill="#000000">+Paciente(nombre:cadena,id:cadena,fechaDeNacimiento:LocalDate,historialMedico:HistorialMedico)</text>
<text text-anchor="start" x="551.074" y="-97" font-family="Helvetica,sans-Serif" font-size="10.00" fill="#000000">+agregarCitaProgramada():void</text>
<text text-anchor="start" x="553.584" y="-85" font-family="Helvetica,sans-Serif" font-size="10.00" fill="#000000">+eliminarCitaProgrmada():void</text>
<text text-anchor="start" x="547.1845" y="-73" font-family="Helvetica,sans-Serif" font-size="10.00" fill="#000000">+agregarTratamientoActivo():void</text>
<text text-anchor="start" x="589.4065" y="-61" font-family="Helvetica,sans-Serif" font-size="10.00" fill="#000000">+update():void</text>
<text text-anchor="start" x="573.725" y="-49" font-family="Helvetica,sans-Serif" font-size="10.00" fill="#000000">solicitarInforme():void</text>
</g>
<!-- A2 -->
<g id="node3" class="node">
<title>A2</title>
<polygon fill="none" stroke="#000000" points="872,-148 872,-180 1281,-180 1281,-148 872,-148"/>
<text text-anchor="start" x="1061.7775" y="-161" font-family="Helvetica,sans-Serif" font-size="10.00" fill="#000000">Doctor</text>
<polygon fill="none" stroke="#000000" points="872,-104 872,-148 1281,-148 1281,-104 872,-104"/>
<text text-anchor="start" x="1029.2635" y="-129" font-family="Helvetica,sans-Serif" font-size="10.00" fill="#000000">&#45;especialidad:cadena</text>
<text text-anchor="start" x="1045.9355" y="-117" font-family="Helvetica,sans-Serif" font-size="10.00" fill="#000000">&#45;estado:enum</text>
<polygon fill="none" stroke="#000000" points="872,-36 872,-104 1281,-104 1281,-36 872,-36"/>
<text text-anchor="start" x="881.8655" y="-85" font-family="Helvetica,sans-Serif" font-size="10.00" fill="#000000">+Doctor(nombre:cadena,id:cadena,fechaDeNacimiento:LocalDate,especialidad:cadena)</text>
<text text-anchor="start" x="1026.354" y="-73" font-family="Helvetica,sans-Serif" font-size="10.00" fill="#000000">+cambiarEstado():void</text>
<text text-anchor="start" x="1011.0685" y="-61" font-family="Helvetica,sans-Serif" font-size="10.00" fill="#000000">+agregarCitaPendiente():void</text>
<text text-anchor="start" x="1010.799" y="-49" font-family="Helvetica,sans-Serif" font-size="10.00" fill="#000000">+eliminarCitaPendiente():void</text>
</g>
<!-- A3 -->
<g id="node4" class="node">
<title>A3</title>
<polygon fill="none" stroke="#000000" points="1299,-142 1299,-174 1773,-174 1773,-142 1299,-142"/>
<text text-anchor="start" x="1493.778" y="-155" font-family="Helvetica,sans-Serif" font-size="10.00" fill="#000000">AdministradorCitas</text>
<polygon fill="none" stroke="#000000" points="1299,-110 1299,-142 1773,-142 1773,-110 1299,-110"/>
<text text-anchor="start" x="1497.107" y="-123" font-family="Helvetica,sans-Serif" font-size="10.00" fill="#000000">&#45;random:Random</text>
<polygon fill="none" stroke="#000000" points="1299,-42 1299,-110 1773,-110 1773,-42 1299,-42"/>
<text text-anchor="start" x="1308.598" y="-91" font-family="Helvetica,sans-Serif" font-size="10.00" fill="#000000">+AdministradorCitas(nombre:cadena,id:cadena,fechaDeNacimiento:LocalDate,consultorio:Consultorio)</text>
<text text-anchor="start" x="1487.25" y="-79" font-family="Helvetica,sans-Serif" font-size="10.00" fill="#000000">+programarCita():void</text>
<text text-anchor="start" x="1468.358" y="-67" font-family="Helvetica,sans-Serif" font-size="10.00" fill="#000000">+verificarCruceCitas():boolean</text>
<text text-anchor="start" x="1491.4135" y="-55" font-family="Helvetica,sans-Serif" font-size="10.00" fill="#000000">+cancelarCita():void</text>
</g>
<!-- A4 -->
<g id="node5" class="node">
<title>A4</title>
<polygon fill="none" stroke="#000000" points="1792,-136 1792,-192 2115,-192 2115,-136 1792,-136"/>
<text text-anchor="start" x="1934.883" y="-173" font-family="Helvetica,sans-Serif" font-size="10.00" fill="#000000">&lt;&lt;Clase</text>
<text text-anchor="start" x="1926.5445" y="-161" font-family="Helvetica,sans-Serif" font-size="10.00" fill="#000000">Abstracta&gt;&gt;</text>
<text text-anchor="start" x="1934.883" y="-149" font-family="Helvetica,sans-Serif" font-size="10.00" fill="#000000">Persona</text>
<polygon fill="none" stroke="#000000" points="1792,-68 1792,-136 2115,-136 2115,-68 1792,-68"/>
<text text-anchor="start" x="1917.1015" y="-117" font-family="Helvetica,sans-Serif" font-size="10.00" fill="#000000">&#45;nombre:cadena</text>
<text text-anchor="start" x="1930.1595" y="-105" font-family="Helvetica,sans-Serif" font-size="10.00" fill="#000000">&#45;id:cadena</text>
<text text-anchor="start" x="1890.7115" y="-93" font-family="Helvetica,sans-Serif" font-size="10.00" fill="#000000">&#45;fechaNacimiento:LocalDate</text>
<text text-anchor="start" x="1925.156" y="-81" font-family="Helvetica,sans-Serif" font-size="10.00" fill="#000000">&#45;edad:entero</text>
<polygon fill="none" stroke="#000000" points="1792,-24 1792,-68 2115,-68 2115,-24 1792,-24"/>
<text text-anchor="start" x="1801.9325" y="-49" font-family="Helvetica,sans-Serif" font-size="10.00" fill="#000000">+Persona(nombre:cadena,id:cadena,fechaDeNacimiento:LocalDate)</text>
<text text-anchor="start" x="1902.795" y="-37" font-family="Helvetica,sans-Serif" font-size="10.00" fill="#000000">+calcularEdad():entero</text>
</g>
<!-- A5 -->
<g id="node6" class="node">
<title>A5</title>
<polygon fill="none" stroke="#000000" points="2133,-166 2133,-198 2705,-198 2705,-166 2133,-166"/>
<text text-anchor="start" x="2389.8305" y="-179" font-family="Helvetica,sans-Serif" font-size="10.00" fill="#000000">CitaConcreta</text>
<polygon fill="none" stroke="#000000" points="2133,-98 2133,-166 2705,-166 2705,-98 2133,-98"/>
<text text-anchor="start" x="2350.383" y="-147" font-family="Helvetica,sans-Serif" font-size="10.00" fill="#000000">&#45;fechaHoraCita:LocalDateTime</text>
<text text-anchor="start" x="2384.826" y="-135" font-family="Helvetica,sans-Serif" font-size="10.00" fill="#000000">&#45;motivo:cadena</text>
<text text-anchor="start" x="2379.5475" y="-123" font-family="Helvetica,sans-Serif" font-size="10.00" fill="#000000">&#45;estadoCita:enum</text>
<text text-anchor="start" x="2381.492" y="-111" font-family="Helvetica,sans-Serif" font-size="10.00" fill="#000000">&#45;salaCita:cadena</text>
<polygon fill="none" stroke="#000000" points="2133,-18 2133,-98 2705,-98 2705,-18 2133,-18"/>
<text text-anchor="start" x="2142.687" y="-79" font-family="Helvetica,sans-Serif" font-size="10.00" fill="#000000">+CitaConcreta(fechaHoraCita:LocalDateTime,motivo:cadena,estado:enum,salaCita:cadena,doctor:Doctor,paciente:Paciente)</text>
<text text-anchor="start" x="2361.9125" y="-67" font-family="Helvetica,sans-Serif" font-size="10.00" fill="#000000">+definirTratamiento():void</text>
<text text-anchor="start" x="2365.24" y="-55" font-family="Helvetica,sans-Serif" font-size="10.00" fill="#000000">+actualizarEstado():void</text>
<text text-anchor="start" x="2376.0845" y="-43" font-family="Helvetica,sans-Serif" font-size="10.00" fill="#000000">+finalizarCita():void</text>
<text text-anchor="start" x="2374.4135" y="-31" font-family="Helvetica,sans-Serif" font-size="10.00" fill="#000000">+cancelarCita():void</text>
</g>
<!-- A6 -->
<g id="node7" class="node">
<title>A6</title>
<polygon fill="none" stroke="#000000" points="2723,-154 2723,-186 3271,-186 3271,-154 2723,-154"/>
<text text-anchor="start" x="2970.3305" y="-167" font-family="Helvetica,sans-Serif" font-size="10.00" fill="#000000">Tratamiento</text>
<polygon fill="none" stroke="#000000" points="2723,-74 2723,-154 3271,-154 3271,-74 2723,-74"/>
<text text-anchor="start" x="2947.5445" y="-135" font-family="Helvetica,sans-Serif" font-size="10.00" fill="#000000">&#45;fechaInicio:LocalDate</text>
<text text-anchor="start" x="2960.6015" y="-123" font-family="Helvetica,sans-Serif" font-size="10.00" fill="#000000">&#45;nombre:cadena</text>
<text text-anchor="start" x="2952.2675" y="-111" font-family="Helvetica,sans-Serif" font-size="10.00" fill="#000000">&#45;descripcion:cadena</text>
<text text-anchor="start" x="2952.2685" y="-99" font-family="Helvetica,sans-Serif" font-size="10.00" fill="#000000">&#45;fechaFin:LocalDate</text>
<text text-anchor="start" x="2939.766" y="-87" font-family="Helvetica,sans-Serif" font-size="10.00" fill="#000000">&#45;estadoTratamiento:enum</text>
<polygon fill="none" stroke="#000000" points="2723,-30 2723,-74 3271,-74 3271,-30 2723,-30"/>
<text text-anchor="start" x="2732.628" y="-55" font-family="Helvetica,sans-Serif" font-size="10.00" fill="#000000">+Tratamiento(fechaInicio:LocalDate,nombre:cadena,descripcion:cadena,fechaFin:cadena,recetaMedica:RecetaMedica)</text>
<text text-anchor="start" x="2943.24" y="-43" font-family="Helvetica,sans-Serif" font-size="10.00" fill="#000000">+actualizarEstado():void</text>
</g>
<!-- A7 -->
<g id="node8" class="node">
<title>A7</title>
<polygon fill="none" stroke="#000000" points="3290,-142 3290,-174 3697,-174 3697,-142 3290,-142"/>
<text text-anchor="start" x="3459.3365" y="-155" font-family="Helvetica,sans-Serif" font-size="10.00" fill="#000000">HistorialMedico</text>
<polygon fill="none" stroke="#000000" points="3290,-122 3290,-142 3697,-142 3697,-122 3290,-122"/>
<polygon fill="none" stroke="#000000" points="3290,-42 3290,-122 3697,-122 3697,-42 3290,-42"/>
<text text-anchor="start" x="3299.7265" y="-103" font-family="Helvetica,sans-Serif" font-size="10.00" fill="#000000">+HistorialMedico(citas:Coleccion&lt;CitaConcreta&gt;,tratamientos:Coleccion&lt;Tratamiento&gt;)</text>
<text text-anchor="start" x="3427.7985" y="-91" font-family="Helvetica,sans-Serif" font-size="10.00" fill="#000000">+agregarCitaFinalizada():void</text>
<text text-anchor="start" x="3384.1805" y="-79" font-family="Helvetica,sans-Serif" font-size="10.00" fill="#000000">+getCitasFinalizadas():Colleccion&lt;CitaConcreta&gt;</text>
<text text-anchor="start" x="3379.176" y="-67" font-family="Helvetica,sans-Serif" font-size="10.00" fill="#000000">+getTratamientosActivos():Coleccion&lt;Tratamiento&gt;</text>
<text text-anchor="start" x="3365.284" y="-55" font-family="Helvetica,sans-Serif" font-size="10.00" fill="#000000">+getTratamientosProgramados():Coleccion&lt;Tratamiento&gt;</text>
</g>
</g>
</svg>
