<?xml version="1.0" encoding="UTF-8" standalone="no"?>
<!DOCTYPE svg PUBLIC "-//W3C//DTD SVG 1.1//EN"
 "http://www.w3.org/Graphics/SVG/1.1/DTD/svg11.dtd">
<!-- Generated by graphviz version 2.40.1 (20161225.0304)
 -->
<!-- Title: G Pages: 1 -->
<svg width="2067pt" height="810pt"
 viewBox="0.00 0.00 2066.50 810.00" xmlns="http://www.w3.org/2000/svg" xmlns:xlink="http://www.w3.org/1999/xlink">
<g id="graph0" class="graph" transform="scale(1 1) rotate(0) translate(4 806)">
<title>G</title>
<polygon fill="#ffffff" stroke="transparent" points="-4,4 -4,-806 2062.5,-806 2062.5,4 -4,4"/>
<!-- A0 -->
<g id="node1" class="node">
<title>A0</title>
<polygon fill="none" stroke="#000000" points="479.5,-770 479.5,-802 849.5,-802 849.5,-770 479.5,-770"/>
<text text-anchor="start" x="639.22" y="-783" font-family="Helvetica,sans-Serif" font-size="10.00" fill="#000000">Consultorio</text>
<polygon fill="none" stroke="#000000" points="479.5,-702 479.5,-770 849.5,-770 849.5,-702 479.5,-702"/>
<text text-anchor="start" x="628.1015" y="-751" font-family="Helvetica,sans-Serif" font-size="10.00" fill="#000000">&#45;nombre:cadena</text>
<text text-anchor="start" x="625.047" y="-739" font-family="Helvetica,sans-Serif" font-size="10.00" fill="#000000">&#45;direccion:cadena</text>
<text text-anchor="start" x="600.3215" y="-727" font-family="Helvetica,sans-Serif" font-size="10.00" fill="#000000">&#45;fechaDeCreacion:LocalDate</text>
<text text-anchor="start" x="603.6615" y="-715" font-family="Helvetica,sans-Serif" font-size="10.00" fill="#000000">&#45;instanciaUnica:Consultorio</text>
<polygon fill="none" stroke="#000000" points="479.5,-586 479.5,-702 849.5,-702 849.5,-586 479.5,-586"/>
<text text-anchor="start" x="489.1835" y="-683" font-family="Helvetica,sans-Serif" font-size="10.00" fill="#000000">+Consultorio(nombre:cadena,direccion:cadena)+obtenerInstancia():Consultorio</text>
<text text-anchor="start" x="604.625" y="-671" font-family="Helvetica,sans-Serif" font-size="10.00" fill="#000000">+buscarPersona():Persona</text>
<text text-anchor="start" x="605.4615" y="-659" font-family="Helvetica,sans-Serif" font-size="10.00" fill="#000000">+verificarPersona:Optional</text>
<text text-anchor="start" x="600.7415" y="-647" font-family="Helvetica,sans-Serif" font-size="10.00" fill="#000000">+validarPersonaExiste():void</text>
<text text-anchor="start" x="611.85" y="-635" font-family="Helvetica,sans-Serif" font-size="10.00" fill="#000000">+agregarPersona():void</text>
<text text-anchor="start" x="611.5805" y="-623" font-family="Helvetica,sans-Serif" font-size="10.00" fill="#000000">+eliminarPersona():void</text>
<text text-anchor="start" x="557.265" y="-611" font-family="Helvetica,sans-Serif" font-size="10.00" fill="#000000">crearIteradorDoctoresActivos():Iterador&lt;Doctor&gt;</text>
<text text-anchor="start" x="586.7255" y="-599" font-family="Helvetica,sans-Serif" font-size="10.00" fill="#000000">crearAdministrador():Administrador</text>
</g>
<!-- A1 -->
<g id="node2" class="node">
<title>A1</title>
<polygon fill="none" stroke="#000000" points="920.5,-504 920.5,-536 1385.5,-536 1385.5,-504 920.5,-504"/>
<text text-anchor="start" x="1133.5485" y="-517" font-family="Helvetica,sans-Serif" font-size="10.00" fill="#000000">Paciente</text>
<polygon fill="none" stroke="#000000" points="920.5,-484 920.5,-504 1385.5,-504 1385.5,-484 920.5,-484"/>
<polygon fill="none" stroke="#000000" points="920.5,-392 920.5,-484 1385.5,-484 1385.5,-392 920.5,-392"/>
<text text-anchor="start" x="930.322" y="-465" font-family="Helvetica,sans-Serif" font-size="10.00" fill="#000000">+Paciente(nombre:cadena,id:cadena,fechaDeNacimiento:LocalDate,historialMedico:HistorialMedico)</text>
<text text-anchor="start" x="1082.574" y="-453" font-family="Helvetica,sans-Serif" font-size="10.00" fill="#000000">+agregarCitaProgramada():void</text>
<text text-anchor="start" x="1085.084" y="-441" font-family="Helvetica,sans-Serif" font-size="10.00" fill="#000000">+eliminarCitaProgrmada():void</text>
<text text-anchor="start" x="1078.6845" y="-429" font-family="Helvetica,sans-Serif" font-size="10.00" fill="#000000">+agregarTratamientoActivo():void</text>
<text text-anchor="start" x="1120.9065" y="-417" font-family="Helvetica,sans-Serif" font-size="10.00" fill="#000000">+update():void</text>
<text text-anchor="start" x="1105.225" y="-405" font-family="Helvetica,sans-Serif" font-size="10.00" fill="#000000">solicitarInforme():void</text>
</g>
<!-- A0&#45;&gt;A1 -->
<g id="edge4" class="edge">
<title>A0&#45;&gt;A1</title>
<path fill="none" stroke="#000000" d="M860.7573,-601.5017C906.9891,-579.7121 955.6006,-556.8009 999.5979,-536.0645"/>
<polygon fill="none" stroke="#000000" points="860.5425,-601.6029 856.8205,-607.7792 849.6877,-606.7189 853.4098,-600.5426 860.5425,-601.6029"/>
<text text-anchor="middle" x="862.4805" y="-588.3454" font-family="Helvetica,sans-Serif" font-size="10.00" fill="#000000">pacientes</text>
</g>
<!-- A2 -->
<g id="node3" class="node">
<title>A2</title>
<polygon fill="none" stroke="#000000" points=".5,-504 .5,-536 409.5,-536 409.5,-504 .5,-504"/>
<text text-anchor="start" x="190.2775" y="-517" font-family="Helvetica,sans-Serif" font-size="10.00" fill="#000000">Doctor</text>
<polygon fill="none" stroke="#000000" points=".5,-460 .5,-504 409.5,-504 409.5,-460 .5,-460"/>
<text text-anchor="start" x="157.7635" y="-485" font-family="Helvetica,sans-Serif" font-size="10.00" fill="#000000">&#45;especialidad:cadena</text>
<text text-anchor="start" x="174.4355" y="-473" font-family="Helvetica,sans-Serif" font-size="10.00" fill="#000000">&#45;estado:enum</text>
<polygon fill="none" stroke="#000000" points=".5,-392 .5,-460 409.5,-460 409.5,-392 .5,-392"/>
<text text-anchor="start" x="10.3655" y="-441" font-family="Helvetica,sans-Serif" font-size="10.00" fill="#000000">+Doctor(nombre:cadena,id:cadena,fechaDeNacimiento:LocalDate,especialidad:cadena)</text>
<text text-anchor="start" x="154.854" y="-429" font-family="Helvetica,sans-Serif" font-size="10.00" fill="#000000">+cambiarEstado():void</text>
<text text-anchor="start" x="139.5685" y="-417" font-family="Helvetica,sans-Serif" font-size="10.00" fill="#000000">+agregarCitaPendiente():void</text>
<text text-anchor="start" x="139.299" y="-405" font-family="Helvetica,sans-Serif" font-size="10.00" fill="#000000">+eliminarCitaPendiente():void</text>
</g>
<!-- A0&#45;&gt;A2 -->
<g id="edge3" class="edge">
<title>A0&#45;&gt;A2</title>
<path fill="none" stroke="#000000" d="M468.6264,-596.0632C428.3397,-575.9199 386.6245,-555.0622 348.5737,-536.0368"/>
<polygon fill="none" stroke="#000000" points="468.6556,-596.0778 475.8111,-595.1834 479.3888,-601.4444 472.2333,-602.3388 468.6556,-596.0778"/>
<text text-anchor="middle" x="459.3962" y="-597.8982" font-family="Helvetica,sans-Serif" font-size="10.00" fill="#000000">doctores</text>
</g>
<!-- A3 -->
<g id="node4" class="node">
<title>A3</title>
<polygon fill="none" stroke="#000000" points="427.5,-498 427.5,-530 901.5,-530 901.5,-498 427.5,-498"/>
<text text-anchor="start" x="622.278" y="-511" font-family="Helvetica,sans-Serif" font-size="10.00" fill="#000000">AdministradorCitas</text>
<polygon fill="none" stroke="#000000" points="427.5,-466 427.5,-498 901.5,-498 901.5,-466 427.5,-466"/>
<text text-anchor="start" x="625.607" y="-479" font-family="Helvetica,sans-Serif" font-size="10.00" fill="#000000">&#45;random:Random</text>
<polygon fill="none" stroke="#000000" points="427.5,-398 427.5,-466 901.5,-466 901.5,-398 427.5,-398"/>
<text text-anchor="start" x="437.098" y="-447" font-family="Helvetica,sans-Serif" font-size="10.00" fill="#000000">+AdministradorCitas(nombre:cadena,id:cadena,fechaDeNacimiento:LocalDate,consultorio:Consultorio)</text>
<text text-anchor="start" x="615.75" y="-435" font-family="Helvetica,sans-Serif" font-size="10.00" fill="#000000">+programarCita():void</text>
<text text-anchor="start" x="596.858" y="-423" font-family="Helvetica,sans-Serif" font-size="10.00" fill="#000000">+verificarCruceCitas():boolean</text>
<text text-anchor="start" x="619.9135" y="-411" font-family="Helvetica,sans-Serif" font-size="10.00" fill="#000000">+cancelarCita():void</text>
</g>
<!-- A0&#45;&gt;A3 -->
<g id="edge5" class="edge">
<title>A0&#45;&gt;A3</title>
<path fill="none" stroke="#000000" d="M664.5,-573.7034C664.5,-558.709 664.5,-543.8349 664.5,-530.1038"/>
<polygon fill="#000000" stroke="#000000" points="664.5001,-573.7349 668.5,-579.7349 664.5,-585.7349 660.5,-579.7348 664.5001,-573.7349"/>
</g>
<!-- A4 -->
<g id="node5" class="node">
<title>A4</title>
<polygon fill="none" stroke="#000000" points="153.5,-280 153.5,-336 476.5,-336 476.5,-280 153.5,-280"/>
<text text-anchor="start" x="296.383" y="-317" font-family="Helvetica,sans-Serif" font-size="10.00" fill="#000000">&lt;&lt;Clase</text>
<text text-anchor="start" x="288.0445" y="-305" font-family="Helvetica,sans-Serif" font-size="10.00" fill="#000000">Abstracta&gt;&gt;</text>
<text text-anchor="start" x="296.383" y="-293" font-family="Helvetica,sans-Serif" font-size="10.00" fill="#000000">Persona</text>
<polygon fill="none" stroke="#000000" points="153.5,-212 153.5,-280 476.5,-280 476.5,-212 153.5,-212"/>
<text text-anchor="start" x="278.6015" y="-261" font-family="Helvetica,sans-Serif" font-size="10.00" fill="#000000">&#45;nombre:cadena</text>
<text text-anchor="start" x="291.6595" y="-249" font-family="Helvetica,sans-Serif" font-size="10.00" fill="#000000">&#45;id:cadena</text>
<text text-anchor="start" x="252.2115" y="-237" font-family="Helvetica,sans-Serif" font-size="10.00" fill="#000000">&#45;fechaNacimiento:LocalDate</text>
<text text-anchor="start" x="286.656" y="-225" font-family="Helvetica,sans-Serif" font-size="10.00" fill="#000000">&#45;edad:entero</text>
<polygon fill="none" stroke="#000000" points="153.5,-168 153.5,-212 476.5,-212 476.5,-168 153.5,-168"/>
<text text-anchor="start" x="163.4325" y="-193" font-family="Helvetica,sans-Serif" font-size="10.00" fill="#000000">+Persona(nombre:cadena,id:cadena,fechaDeNacimiento:LocalDate)</text>
<text text-anchor="start" x="264.295" y="-181" font-family="Helvetica,sans-Serif" font-size="10.00" fill="#000000">+calcularEdad():entero</text>
</g>
<!-- A1&#45;&gt;A4 -->
<g id="edge9" class="edge">
<title>A1&#45;&gt;A4</title>
<path fill="none" stroke="#000000" d="M919.8877,-393.986C916.743,-393.3037 913.6126,-392.6412 910.5,-392 724.2193,-353.6288 667.1523,-398.3496 485.5,-342 482.8866,-341.1893 480.2661,-340.3389 477.6417,-339.4522"/>
<polygon fill="none" stroke="#000000" points="478.7224,-336.122 468.1276,-336.0886 476.3891,-342.7217 478.7224,-336.122"/>
</g>
<!-- A5 -->
<g id="node6" class="node">
<title>A5</title>
<polygon fill="none" stroke="#000000" points="494.5,-310 494.5,-342 1066.5,-342 1066.5,-310 494.5,-310"/>
<text text-anchor="start" x="751.3305" y="-323" font-family="Helvetica,sans-Serif" font-size="10.00" fill="#000000">CitaConcreta</text>
<polygon fill="none" stroke="#000000" points="494.5,-242 494.5,-310 1066.5,-310 1066.5,-242 494.5,-242"/>
<text text-anchor="start" x="711.883" y="-291" font-family="Helvetica,sans-Serif" font-size="10.00" fill="#000000">&#45;fechaHoraCita:LocalDateTime</text>
<text text-anchor="start" x="746.326" y="-279" font-family="Helvetica,sans-Serif" font-size="10.00" fill="#000000">&#45;motivo:cadena</text>
<text text-anchor="start" x="741.0475" y="-267" font-family="Helvetica,sans-Serif" font-size="10.00" fill="#000000">&#45;estadoCita:enum</text>
<text text-anchor="start" x="742.992" y="-255" font-family="Helvetica,sans-Serif" font-size="10.00" fill="#000000">&#45;salaCita:cadena</text>
<polygon fill="none" stroke="#000000" points="494.5,-162 494.5,-242 1066.5,-242 1066.5,-162 494.5,-162"/>
<text text-anchor="start" x="504.187" y="-223" font-family="Helvetica,sans-Serif" font-size="10.00" fill="#000000">+CitaConcreta(fechaHoraCita:LocalDateTime,motivo:cadena,estado:enum,salaCita:cadena,doctor:Doctor,paciente:Paciente)</text>
<text text-anchor="start" x="723.4125" y="-211" font-family="Helvetica,sans-Serif" font-size="10.00" fill="#000000">+definirTratamiento():void</text>
<text text-anchor="start" x="726.74" y="-199" font-family="Helvetica,sans-Serif" font-size="10.00" fill="#000000">+actualizarEstado():void</text>
<text text-anchor="start" x="737.5845" y="-187" font-family="Helvetica,sans-Serif" font-size="10.00" fill="#000000">+finalizarCita():void</text>
<text text-anchor="start" x="735.9135" y="-175" font-family="Helvetica,sans-Serif" font-size="10.00" fill="#000000">+cancelarCita():void</text>
</g>
<!-- A1&#45;&gt;A5 -->
<g id="edge10" class="edge">
<title>A1&#45;&gt;A5</title>
<path fill="none" stroke="#000000" d="M1015.4046,-385.8704C990.3969,-371.6186 964.1195,-356.6434 938.5622,-342.0785"/>
<polygon fill="none" stroke="#000000" points="1015.6129,-385.989 1022.8063,-385.4846 1026.0387,-391.9307 1018.8452,-392.4351 1015.6129,-385.989"/>
<text text-anchor="middle" x="1006.1053" y="-387.2994" font-family="Helvetica,sans-Serif" font-size="10.00" fill="#000000">citasProgramadas</text>
</g>
<!-- A6 -->
<g id="node7" class="node">
<title>A6</title>
<polygon fill="none" stroke="#000000" points="1510.5,-298 1510.5,-330 2058.5,-330 2058.5,-298 1510.5,-298"/>
<text text-anchor="start" x="1757.8305" y="-311" font-family="Helvetica,sans-Serif" font-size="10.00" fill="#000000">Tratamiento</text>
<polygon fill="none" stroke="#000000" points="1510.5,-218 1510.5,-298 2058.5,-298 2058.5,-218 1510.5,-218"/>
<text text-anchor="start" x="1735.0445" y="-279" font-family="Helvetica,sans-Serif" font-size="10.00" fill="#000000">&#45;fechaInicio:LocalDate</text>
<text text-anchor="start" x="1748.1015" y="-267" font-family="Helvetica,sans-Serif" font-size="10.00" fill="#000000">&#45;nombre:cadena</text>
<text text-anchor="start" x="1739.7675" y="-255" font-family="Helvetica,sans-Serif" font-size="10.00" fill="#000000">&#45;descripcion:cadena</text>
<text text-anchor="start" x="1739.7685" y="-243" font-family="Helvetica,sans-Serif" font-size="10.00" fill="#000000">&#45;fechaFin:LocalDate</text>
<text text-anchor="start" x="1727.266" y="-231" font-family="Helvetica,sans-Serif" font-size="10.00" fill="#000000">&#45;estadoTratamiento:enum</text>
<polygon fill="none" stroke="#000000" points="1510.5,-174 1510.5,-218 2058.5,-218 2058.5,-174 1510.5,-174"/>
<text text-anchor="start" x="1520.128" y="-199" font-family="Helvetica,sans-Serif" font-size="10.00" fill="#000000">+Tratamiento(fechaInicio:LocalDate,nombre:cadena,descripcion:cadena,fechaFin:cadena,recetaMedica:RecetaMedica)</text>
<text text-anchor="start" x="1730.74" y="-187" font-family="Helvetica,sans-Serif" font-size="10.00" fill="#000000">+actualizarEstado():void</text>
</g>
<!-- A1&#45;&gt;A6 -->
<g id="edge11" class="edge">
<title>A1&#45;&gt;A6</title>
<path fill="none" stroke="#000000" d="M1378.8981,-388.0563C1435.0773,-369.2114 1495.3753,-348.9849 1551.8485,-330.0413"/>
<polygon fill="none" stroke="#000000" points="1378.7252,-388.1143 1374.3089,-393.8148 1367.3482,-391.9307 1371.7646,-386.2301 1378.7252,-388.1143"/>
<text text-anchor="middle" x="1381.8452" y="-375.1525" font-family="Helvetica,sans-Serif" font-size="10.00" fill="#000000">tratamientosActivos</text>
</g>
<!-- A7 -->
<g id="node8" class="node">
<title>A7</title>
<polygon fill="none" stroke="#000000" points="1085.5,-292 1085.5,-324 1492.5,-324 1492.5,-292 1085.5,-292"/>
<text text-anchor="start" x="1254.8365" y="-305" font-family="Helvetica,sans-Serif" font-size="10.00" fill="#000000">HistorialMedico</text>
<polygon fill="none" stroke="#000000" points="1085.5,-272 1085.5,-292 1492.5,-292 1492.5,-272 1085.5,-272"/>
<polygon fill="none" stroke="#000000" points="1085.5,-180 1085.5,-272 1492.5,-272 1492.5,-180 1085.5,-180"/>
<text text-anchor="start" x="1095.2265" y="-253" font-family="Helvetica,sans-Serif" font-size="10.00" fill="#000000">+HistorialMedico(citas:Coleccion&lt;CitaConcreta&gt;,tratamientos:Coleccion&lt;Tratamiento&gt;)</text>
<text text-anchor="start" x="1223.2985" y="-241" font-family="Helvetica,sans-Serif" font-size="10.00" fill="#000000">+agregarCitaFinalizada():void</text>
<text text-anchor="start" x="1179.6805" y="-229" font-family="Helvetica,sans-Serif" font-size="10.00" fill="#000000">+getCitasFinalizadas():Colleccion&lt;CitaConcreta&gt;</text>
<text text-anchor="start" x="1174.676" y="-217" font-family="Helvetica,sans-Serif" font-size="10.00" fill="#000000">+getTratamientosActivos():Coleccion&lt;Tratamiento&gt;</text>
<text text-anchor="start" x="1160.784" y="-205" font-family="Helvetica,sans-Serif" font-size="10.00" fill="#000000">+getTratamientosProgramados():Coleccion&lt;Tratamiento&gt;</text>
<text text-anchor="start" x="1168.428" y="-193" font-family="Helvetica,sans-Serif" font-size="10.00" fill="#000000">getTratamientosFinalizados():Coleccion&lt;Tratamiento&gt;</text>
</g>
<!-- A1&#45;&gt;A7 -->
<g id="edge12" class="edge">
<title>A1&#45;&gt;A7</title>
<path fill="none" stroke="#000000" d="M1205.2247,-381.8115C1217.4066,-362.8221 1230.2782,-342.7576 1242.1637,-324.2301"/>
<polygon fill="none" stroke="#000000" points="1205.2127,-381.8303 1205.3397,-389.0403 1198.7332,-391.9307 1198.6061,-384.7206 1205.2127,-381.8303"/>
<text text-anchor="middle" x="1201.4062" y="-369.1101" font-family="Helvetica,sans-Serif" font-size="10.00" fill="#000000">historialMedico</text>
</g>
<!-- A2&#45;&gt;A4 -->
<g id="edge6" class="edge">
<title>A2&#45;&gt;A4</title>
<path fill="none" stroke="#000000" d="M241.8945,-391.9307C249.6522,-376.9794 257.9323,-361.0214 266.0215,-345.4313"/>
<polygon fill="none" stroke="#000000" points="269.2579,-346.7932 270.7569,-336.3049 263.0445,-343.5692 269.2579,-346.7932"/>
</g>
<!-- A2&#45;&gt;A5 -->
<g id="edge8" class="edge">
<title>A2&#45;&gt;A5</title>
<path fill="none" stroke="#000000" d="M411.6028,-387.7747C451.8634,-372.9565 494.4193,-357.2936 535.7585,-342.0785"/>
<polygon fill="none" stroke="#000000" points="411.5725,-387.7857 407.3234,-393.612 400.3111,-391.9307 404.5602,-386.1044 411.5725,-387.7857"/>
<text text-anchor="middle" x="414.4022" y="-374.7377" font-family="Helvetica,sans-Serif" font-size="10.00" fill="#000000">citasPendientes</text>
</g>
<!-- A9 -->
<g id="node10" class="node">
<title>A9</title>
<polygon fill="none" stroke="#000000" points="54.5,-252 54.5,-296 134.5,-296 134.5,-252 54.5,-252"/>
<text text-anchor="start" x="69.764" y="-277" font-family="Helvetica,sans-Serif" font-size="10.00" fill="#000000">&lt;&lt;Enum&gt;&gt;</text>
<text text-anchor="start" x="64.215" y="-265" font-family="Helvetica,sans-Serif" font-size="10.00" fill="#000000">EstadoDoctor</text>
<polygon fill="none" stroke="#000000" points="54.5,-208 54.5,-252 134.5,-252 134.5,-208 54.5,-208"/>
<text text-anchor="start" x="75.888" y="-233" font-family="Helvetica,sans-Serif" font-size="10.00" fill="#000000">ACTIVO</text>
<text text-anchor="start" x="70.889" y="-221" font-family="Helvetica,sans-Serif" font-size="10.00" fill="#000000">INACTIVO</text>
</g>
<!-- A2&#45;&gt;A9 -->
<g id="edge7" class="edge">
<title>A2&#45;&gt;A9</title>
<path fill="none" stroke="#000000" d="M167.1055,-391.9307C152.3412,-363.4757 135.6846,-331.374 122.0529,-305.1019"/>
<polygon fill="#000000" stroke="#000000" points="117.3654,-296.0678 125.9654,-302.8716 119.6682,-300.506 121.9711,-304.9441 121.9711,-304.9441 121.9711,-304.9441 119.6682,-300.506 117.9767,-307.0167 117.3654,-296.0678 117.3654,-296.0678"/>
</g>
<!-- A3&#45;&gt;A4 -->
<g id="edge13" class="edge">
<title>A3&#45;&gt;A4</title>
<path fill="none" stroke="#000000" d="M555.1975,-397.7939C525.6802,-379.9149 493.2457,-360.2688 462.0097,-341.3487"/>
<polygon fill="none" stroke="#000000" points="463.6014,-338.2209 453.2347,-336.0336 459.9747,-344.2082 463.6014,-338.2209"/>
</g>
<!-- A8 -->
<g id="node9" class="node">
<title>A8</title>
<polygon fill="none" stroke="#000000" points="734.5,-68 734.5,-112 826.5,-112 826.5,-68 734.5,-68"/>
<text text-anchor="start" x="755.764" y="-93" font-family="Helvetica,sans-Serif" font-size="10.00" fill="#000000">&lt;&lt;Enum&gt;&gt;</text>
<text text-anchor="start" x="756.0495" y="-81" font-family="Helvetica,sans-Serif" font-size="10.00" fill="#000000">EstadoCita</text>
<polygon fill="none" stroke="#000000" points="734.5,0 734.5,-68 826.5,-68 826.5,0 734.5,0"/>
<text text-anchor="start" x="744.39" y="-49" font-family="Helvetica,sans-Serif" font-size="10.00" fill="#000000">PROGRAMADA</text>
<text text-anchor="start" x="749.9445" y="-37" font-family="Helvetica,sans-Serif" font-size="10.00" fill="#000000">CANCELADA</text>
<text text-anchor="start" x="752.724" y="-25" font-family="Helvetica,sans-Serif" font-size="10.00" fill="#000000">EN_CURSO</text>
<text text-anchor="start" x="751.61" y="-13" font-family="Helvetica,sans-Serif" font-size="10.00" fill="#000000">FINALIZADA</text>
</g>
<!-- A5&#45;&gt;A8 -->
<g id="edge1" class="edge">
<title>A5&#45;&gt;A8</title>
<path fill="none" stroke="#000000" d="M780.5,-161.7448C780.5,-148.4262 780.5,-134.9157 780.5,-122.2055"/>
<polygon fill="#000000" stroke="#000000" points="780.5,-112.2026 785.0001,-122.2026 780.5,-117.2026 780.5001,-122.2026 780.5001,-122.2026 780.5001,-122.2026 780.5,-117.2026 776.0001,-122.2027 780.5,-112.2026 780.5,-112.2026"/>
</g>
<!-- A10 -->
<g id="node11" class="node">
<title>A10</title>
<polygon fill="none" stroke="#000000" points="1732.5,-62 1732.5,-106 1836.5,-106 1836.5,-62 1732.5,-62"/>
<text text-anchor="start" x="1759.764" y="-87" font-family="Helvetica,sans-Serif" font-size="10.00" fill="#000000">&lt;&lt;Enum&gt;&gt;</text>
<text text-anchor="start" x="1742.268" y="-75" font-family="Helvetica,sans-Serif" font-size="10.00" fill="#000000">EstadoTratamiento</text>
<polygon fill="none" stroke="#000000" points="1732.5,-6 1732.5,-62 1836.5,-62 1836.5,-6 1732.5,-6"/>
<text text-anchor="start" x="1765.888" y="-43" font-family="Helvetica,sans-Serif" font-size="10.00" fill="#000000">ACTIVO</text>
<text text-anchor="start" x="1751.1695" y="-31" font-family="Helvetica,sans-Serif" font-size="10.00" fill="#000000">PROGRMADO</text>
<text text-anchor="start" x="1755.055" y="-19" font-family="Helvetica,sans-Serif" font-size="10.00" fill="#000000">FINALIZADO</text>
</g>
<!-- A6&#45;&gt;A10 -->
<g id="edge2" class="edge">
<title>A6&#45;&gt;A10</title>
<path fill="none" stroke="#000000" d="M1784.5,-173.9724C1784.5,-154.7859 1784.5,-134.5327 1784.5,-116.3259"/>
<polygon fill="#000000" stroke="#000000" points="1784.5,-106.1548 1789.0001,-116.1547 1784.5,-111.1548 1784.5001,-116.1548 1784.5001,-116.1548 1784.5001,-116.1548 1784.5,-111.1548 1780.0001,-116.1548 1784.5,-106.1548 1784.5,-106.1548"/>
</g>
</g>
</svg>
