<?xml version="1.0" encoding="UTF-8" standalone="no"?>
<!DOCTYPE svg PUBLIC "-//W3C//DTD SVG 1.1//EN"
 "http://www.w3.org/Graphics/SVG/1.1/DTD/svg11.dtd">
<!-- Generated by graphviz version 2.40.1 (20161225.0304)
 -->
<!-- Title: G Pages: 1 -->
<svg width="584pt" height="310pt"
 viewBox="0.00 0.00 584.22 310.00" xmlns="http://www.w3.org/2000/svg" xmlns:xlink="http://www.w3.org/1999/xlink">
<g id="graph0" class="graph" transform="scale(1 1) rotate(0) translate(4 306)">
<title>G</title>
<polygon fill="#ffffff" stroke="transparent" points="-4,4 -4,-306 580.222,-306 580.222,4 -4,4"/>
<!-- A0 -->
<g id="node1" class="node">
<title>A0</title>
<polygon fill="none" stroke="#000000" points="0,-270 0,-302 370,-302 370,-270 0,-270"/>
<text text-anchor="start" x="159.72" y="-283" font-family="Helvetica,sans-Serif" font-size="10.00" fill="#000000">Consultorio</text>
<polygon fill="none" stroke="#000000" points="0,-202 0,-270 370,-270 370,-202 0,-202"/>
<text text-anchor="start" x="148.6015" y="-251" font-family="Helvetica,sans-Serif" font-size="10.00" fill="#000000">&#45;nombre:cadena</text>
<text text-anchor="start" x="145.547" y="-239" font-family="Helvetica,sans-Serif" font-size="10.00" fill="#000000">&#45;direccion:cadena</text>
<text text-anchor="start" x="120.8215" y="-227" font-family="Helvetica,sans-Serif" font-size="10.00" fill="#000000">&#45;fechaDeCreacion:LocalDate</text>
<text text-anchor="start" x="124.1615" y="-215" font-family="Helvetica,sans-Serif" font-size="10.00" fill="#000000">&#45;instanciaUnica:Consultorio</text>
<polygon fill="none" stroke="#000000" points="0,-86 0,-202 370,-202 370,-86 0,-86"/>
<text text-anchor="start" x="9.6835" y="-183" font-family="Helvetica,sans-Serif" font-size="10.00" fill="#000000">+Consultorio(nombre:cadena,direccion:cadena)+obtenerInstancia():Consultorio</text>
<text text-anchor="start" x="125.125" y="-171" font-family="Helvetica,sans-Serif" font-size="10.00" fill="#000000">+buscarPersona():Persona</text>
<text text-anchor="start" x="125.9615" y="-159" font-family="Helvetica,sans-Serif" font-size="10.00" fill="#000000">+verificarPersona:Optional</text>
<text text-anchor="start" x="121.2415" y="-147" font-family="Helvetica,sans-Serif" font-size="10.00" fill="#000000">+validarPersonaExiste():void</text>
<text text-anchor="start" x="132.35" y="-135" font-family="Helvetica,sans-Serif" font-size="10.00" fill="#000000">+agregarPersona():void</text>
<text text-anchor="start" x="132.0805" y="-123" font-family="Helvetica,sans-Serif" font-size="10.00" fill="#000000">+eliminarPersona():void</text>
<text text-anchor="start" x="77.765" y="-111" font-family="Helvetica,sans-Serif" font-size="10.00" fill="#000000">crearIteradorDoctoresActivos():Iterador&lt;Doctor&gt;</text>
<text text-anchor="start" x="107.2255" y="-99" font-family="Helvetica,sans-Serif" font-size="10.00" fill="#000000">crearAdministrador():Administrador</text>
</g>
<!-- A1 -->
<g id="node2" class="node">
<title>A1</title>
<polygon fill="none" stroke="#000000" points="218.4031,-36 151.5969,-36 151.5969,0 218.4031,0 218.4031,-36"/>
<text text-anchor="middle" x="185" y="-15" font-family="Helvetica,sans-Serif" font-size="10.00" fill="#000000">Paciente</text>
</g>
<!-- A0&#45;&gt;A1 -->
<g id="edge1" class="edge">
<title>A0&#45;&gt;A1</title>
<path fill="none" stroke="#000000" d="M185,-73.3688C185,-63.4285 185,-54.1352 185,-46.1074"/>
<polygon fill="none" stroke="#000000" points="185.0001,-73.7944 189,-79.7945 185,-85.7944 181,-79.7944 185.0001,-73.7944"/>
<polygon fill="#000000" stroke="#000000" points="185,-36.0029 189.5001,-46.0028 185,-41.0029 185.0001,-46.0029 185.0001,-46.0029 185.0001,-46.0029 185,-41.0029 180.5001,-46.0029 185,-36.0029 185,-36.0029"/>
</g>
<!-- A2 -->
<g id="node3" class="node">
<title>A2</title>
<polygon fill="none" stroke="#000000" points="445.9467,-212 388.0533,-212 388.0533,-176 445.9467,-176 445.9467,-212"/>
<text text-anchor="middle" x="417" y="-191" font-family="Helvetica,sans-Serif" font-size="10.00" fill="#000000">Doctor</text>
</g>
<!-- A3 -->
<g id="node4" class="node">
<title>A3</title>
<polygon fill="none" stroke="#000000" points="576.4449,-212 463.5551,-212 463.5551,-176 576.4449,-176 576.4449,-212"/>
<text text-anchor="middle" x="520" y="-191" font-family="Helvetica,sans-Serif" font-size="10.00" fill="#000000">AdministradorCitas</text>
</g>
</g>
</svg>
